<svg xmlns="http://www.w3.org/2000/svg" xmlns:xlink="http://www.w3.org/1999/xlink" version="1.1" id="Layer_1" x="0px" y="0px" width="50px" height="50px" viewBox="0 0 50 50" enable-background="new 0 0 50 50" xml:space="preserve">
<g id="twitter">
	<path fill="#000000" d="M45.88,11.416c0.327-1.106-0.047-2.302-0.953-3.022c-0.514-0.411-1.136-0.618-1.767-0.618   c-0.498,0-0.996,0.13-1.443,0.397c-0.888,0.521-1.817,0.939-2.787,1.234c-1.854-1.418-4.153-2.207-6.516-2.207   c-5.416,0-9.903,4.04-10.61,9.264c-4.318-0.924-8.252-3.303-11.086-6.779c-0.54-0.666-1.35-1.046-2.196-1.046   c-0.071,0-0.146,0.005-0.222,0.01c-0.928,0.073-1.757,0.596-2.226,1.398c-0.952,1.631-1.453,3.491-1.453,5.386   c0,1.28,0.227,2.525,0.647,3.688c-0.452,0.514-0.714,1.18-0.714,1.884c0,2.808,1.06,5.39,2.826,7.33   c-0.109,0.484-0.092,0.996,0.067,1.486c0.611,1.914,1.729,3.561,3.175,4.818c-0.939,0.213-1.911,0.322-2.897,0.322   c-0.511,0-1.028-0.033-1.549-0.092c-0.11-0.014-0.22-0.021-0.332-0.021c-1.186,0-2.26,0.742-2.663,1.885   c-0.447,1.24,0.026,2.627,1.134,3.34c4.071,2.607,8.775,3.986,13.602,3.986c15.655,0,25.063-12.6,25.232-24.899   c1.274-1.085,2.394-2.334,3.344-3.728c0.359-0.474,0.572-1.063,0.572-1.708C47.065,12.775,46.597,11.933,45.88,11.416z    M40.292,17.801c0.018,0.337,0.025,0.677,0.025,1.018c0,10.404-7.919,22.4-22.4,22.4c-4.445,0-8.584-1.303-12.07-3.537   c0.613,0.068,1.243,0.111,1.878,0.111c3.689,0,7.083-1.26,9.779-3.373c-3.449-0.061-6.354-2.34-7.357-5.467   c0.481,0.092,0.975,0.143,1.478,0.143c0.72,0,1.416-0.098,2.075-0.277c-3.602-0.727-6.317-3.905-6.317-7.723   c0-0.034,0-0.065,0-0.098c1.062,0.588,2.277,0.942,3.567,0.982c-2.112-1.412-3.5-3.824-3.5-6.554c0-1.442,0.388-2.793,1.066-3.956   c3.88,4.763,9.683,7.896,16.227,8.224c-0.136-0.574-0.202-1.178-0.202-1.795c0-4.344,3.524-7.869,7.87-7.869   c2.266,0,4.313,0.956,5.749,2.483c1.791-0.351,3.478-1.006,4.999-1.909c-0.589,1.837-1.838,3.38-3.461,4.354   c1.591-0.188,3.106-0.611,4.52-1.24C43.165,15.305,41.832,16.691,40.292,17.801z"/>
</g>
</svg>