<?xml version="1.0" encoding="utf-8"?>
<!-- Generator: Adobe Illustrator 16.0.4, SVG Export Plug-In . SVG Version: 6.00 Build 0)  -->
<!DOCTYPE svg PUBLIC "-//W3C//DTD SVG 1.1//EN" "http://www.w3.org/Graphics/SVG/1.1/DTD/svg11.dtd">
<svg version="1.1" id="Layer_1" xmlns="http://www.w3.org/2000/svg" xmlns:xlink="http://www.w3.org/1999/xlink" x="0px" y="0px"
	 width="56.693px" height="56.693px" viewBox="0 0 56.693 56.693" enable-background="new 0 0 56.693 56.693" xml:space="preserve">
<path fill="#FFFFFF" d="M52.837,15.065c-1.811,0.805-3.76,1.348-5.805,1.591c2.088-1.25,3.689-3.23,4.444-5.592
	c-1.953,1.159-4.115,2-6.418,2.454c-1.844-1.964-4.471-3.192-7.377-3.192c-5.581,0-10.106,4.525-10.106,10.107
	c0,0.791,0.089,1.562,0.262,2.303c-8.399-0.422-15.848-4.445-20.833-10.561c-0.87,1.492-1.367,3.229-1.367,5.082
	c0,3.507,1.783,6.601,4.495,8.412c-1.655-0.053-3.215-0.508-4.577-1.265c-0.001,0.042-0.001,0.085-0.001,0.128
	c0,4.896,3.483,8.98,8.107,9.91c-0.848,0.229-1.741,0.354-2.663,0.354c-0.651,0-1.285-0.062-1.901-0.182
	c1.286,4.015,5.019,6.938,9.44,7.019c-3.459,2.711-7.815,4.327-12.552,4.327c-0.815,0-1.62-0.048-2.411-0.142
	c4.474,2.869,9.786,4.541,15.493,4.541c18.591,0,28.756-15.4,28.756-28.756c0-0.438-0.009-0.875-0.028-1.31
	C49.769,18.873,51.483,17.092,52.837,15.065z"/>
</svg>
