<?xml version="1.0" encoding="utf-8"?>
<!-- Generator: Adobe Illustrator 16.0.4, SVG Export Plug-In . SVG Version: 6.00 Build 0)  -->
<!DOCTYPE svg PUBLIC "-//W3C//DTD SVG 1.1//EN" "http://www.w3.org/Graphics/SVG/1.1/DTD/svg11.dtd">
<svg version="1.1" id="Layer_1" xmlns="http://www.w3.org/2000/svg" xmlns:xlink="http://www.w3.org/1999/xlink" x="0px" y="0px"
	 width="32px" height="32px" viewBox="0 0 32 32" enable-background="new 0 0 32 32" xml:space="preserve">
<path fill="#FFFFFF" d="M17.447,16.646C17.08,16.279,16.729,16,16,16c-0.729,0-1.135,0.334-1.463,0.662L10.58,20.62
	C10.193,21.006,10,21.469,10,22c0,1.188,1.016,2,2,2c0.516,0,0.986-0.186,1.38-0.58L14,22.8V30c0,1.104,0.896,2,2,2
	c1.104,0,2-0.896,2-2v-7.2l0.62,0.62C19.014,23.814,19.484,24,20,24c0.984,0,2-0.812,2-2c0-0.531-0.193-0.994-0.58-1.38
	L17.447,16.646z M27.952,9.05C27.473,3.973,23.202,0,18,0c-4.841,0-8.878,3.441-9.801,8.01C8.133,8.008,8.067,8,8,8
	c-4.418,0-8,3.582-8,8s3.582,8,8,8h0.557C8.212,23.409,8,22.73,8,22c0-0.727,0.201-1.398,0.562-2H8c-2.206,0-4-1.795-4-4
	c0-2.178,1.75-3.957,3.918-4l3.534,0.107l0.668-3.305C12.682,6.02,15.155,4,18,4c3.111,0,5.678,2.332,5.971,5.426l0.194,2.069
	l1.806,1.03C27.223,13.238,28,14.57,28,16c0,2.205-1.794,4-4,4h-0.561C23.799,20.6,24,21.273,24,22c0,0.73-0.212,1.409-0.557,2H24
	c4.418,0,8-3.582,8-8C32,13.021,30.367,10.427,27.952,9.05z"/>
</svg>
